HIERARCHY
ROOT hip
{
  OFFSET 0 0 0
  CHANNELS 6 Xposition Yposition Zposition Zrotation Yrotation Xrotation
  JOINT abdomen
  {
    OFFSET 0 20.6881 -0.73152
    CHANNELS 3 Zrotation Xrotation Yrotation
    JOINT chest
    {
      OFFSET 0 11.7043 -0.48768
      CHANNELS 3 Zrotation Xrotation Yrotation
      JOINT neck
      {
        OFFSET 0 22.1894 -2.19456
        CHANNELS 3 Zrotation Xrotation Yrotation
        JOINT head
        {
          OFFSET -0.24384 7.07133 1.2192
          CHANNELS 3 Zrotation Xrotation Yrotation
          JOINT leftEye
          {
            OFFSET 4.14528 8.04674 8.04672
            CHANNELS 3 Zrotation Xrotation Yrotation
            End Site
            {
              OFFSET 1 0 0
            }
          }
          JOINT rightEye
          {
            OFFSET -3.6576 8.04674 8.04672
            CHANNELS 3 Zrotation Xrotation Yrotation
            End Site
            {
              OFFSET 1 0 0
            }
          }
        }
      }
      JOINT rCollar
      {
        OFFSET -2.68224 19.2634 -4.8768
        CHANNELS 3 Zrotation Xrotation Yrotation
        JOINT rShldr
        {
          OFFSET -8.77824 -1.95073 1.46304
          CHANNELS 3 Zrotation Xrotation Yrotation
          JOINT rForeArm
          {
            OFFSET -28.1742 -1.7115 0.48768
            CHANNELS 3 Zrotation Xrotation Yrotation
            JOINT rHand
            {
              OFFSET -22.5879 0.773209 7.07136
              CHANNELS 3 Zrotation Xrotation Yrotation
              JOINT rThumb1
              {
                OFFSET -1.2192 -0.487915 3.41376
                CHANNELS 3 Zrotation Xrotation Yrotation
                JOINT rThumb2
                {
                  OFFSET -3.37035 -0.52449 3.41376
                  CHANNELS 3 Zrotation Xrotation Yrotation
                  End Site
                  {
                    OFFSET -1.78271 -1.18214 1.43049
                  }
                }
              }
              JOINT rIndex1
              {
                OFFSET -7.75947 0.938293 5.60832
                CHANNELS 3 Zrotation Xrotation Yrotation
                JOINT rIndex2
                {
                  OFFSET -2.54057 -0.884171 1.56538
                  CHANNELS 3 Zrotation Xrotation Yrotation
                  End Site
                  {
                    OFFSET -1.62519 -0.234802 1.16502
                  }
                }
              }
              JOINT rMid1
              {
                OFFSET -8.24714 1.18213 3.41376
                CHANNELS 3 Zrotation Xrotation Yrotation
                JOINT rMid2
                {
                  OFFSET -3.10165 -0.590103 1.0647
                  CHANNELS 3 Zrotation Xrotation Yrotation
                  End Site
                  {
                    OFFSET -2.48547 -0.328903 0.83742
                  }
                }
              }
              JOINT rRing1
              {
                OFFSET -8.82822 0.546677 1.51678
                CHANNELS 3 Zrotation Xrotation Yrotation
                JOINT rRing2
                {
                  OFFSET -2.60934 -0.819778 -0.0198488
                  CHANNELS 3 Zrotation Xrotation Yrotation
                  End Site
                  {
                    OFFSET -2.33842 -0.294052 0.168128
                  }
                }
              }
              JOINT rPinky1
              {
                OFFSET -8.27202 -0.0477905 -0.4584
                CHANNELS 3 Zrotation Xrotation Yrotation
                JOINT rPinky2
                {
                  OFFSET -1.82734 -0.647385 -0.700984
                  CHANNELS 3 Zrotation Xrotation Yrotation
                  End Site
                  {
                    OFFSET -1.69225 -0.51767 -0.607171
                  }
                }
              }
            }
          }
        }
      }
      JOINT lCollar
      {
        OFFSET 2.68224 19.2634 -4.8768
        CHANNELS 3 Zrotation Xrotation Yrotation
        JOINT lShldr
        {
          OFFSET 8.77824 -1.95073 1.46304
          CHANNELS 3 Zrotation Xrotation Yrotation
          JOINT lForeArm
          {
            OFFSET 28.1742 -1.7115 0.48768
            CHANNELS 3 Zrotation Xrotation Yrotation
            JOINT lHand
            {
              OFFSET 22.5879 0.773209 7.07136
              CHANNELS 3 Zrotation Xrotation Yrotation
              JOINT lThumb1
              {
                OFFSET 1.2192 -0.487915 3.41376
                CHANNELS 3 Zrotation Xrotation Yrotation
                JOINT lThumb2
                {
                  OFFSET 3.37035 -0.52449 3.41376
                  CHANNELS 3 Zrotation Xrotation Yrotation
                  End Site
                  {
                    OFFSET 1.78271 -1.18214 1.43049
                  }
                }
              }
              JOINT lIndex1
              {
                OFFSET 7.75947 0.938293 5.60832
                CHANNELS 3 Zrotation Xrotation Yrotation
                JOINT lIndex2
                {
                  OFFSET 2.54057 -0.884171 1.56538
                  CHANNELS 3 Zrotation Xrotation Yrotation
                  End Site
                  {
                    OFFSET 1.62519 -0.234802 1.16502
                  }
                }
              }
              JOINT lMid1
              {
                OFFSET 8.24714 1.18213 3.41376
                CHANNELS 3 Zrotation Xrotation Yrotation
                JOINT lMid2
                {
                  OFFSET 3.10165 -0.590103 1.0647
                  CHANNELS 3 Zrotation Xrotation Yrotation
                  End Site
                  {
                    OFFSET 2.48547 -0.328903 0.83742
                  }
                }
              }
              JOINT lRing1
              {
                OFFSET 8.82822 0.546677 1.51678
                CHANNELS 3 Zrotation Xrotation Yrotation
                JOINT lRing2
                {
                  OFFSET 2.60934 -0.819778 -0.0198488
                  CHANNELS 3 Zrotation Xrotation Yrotation
                  End Site
                  {
                    OFFSET 2.33842 -0.294052 0.168128
                  }
                }
              }
              JOINT lPinky1
              {
                OFFSET 8.27202 -0.0477905 -0.4584
                CHANNELS 3 Zrotation Xrotation Yrotation
                JOINT lPinky2
                {
                  OFFSET 1.82734 -0.647385 -0.700984
                  CHANNELS 3 Zrotation Xrotation Yrotation
                  End Site
                  {
                    OFFSET 1.69225 -0.51767 -0.607171
                  }
                }
              }
            }
          }
        }
      }
    }
  }
  JOINT rButtock
  {
    OFFSET -8.77824 4.35084 1.2192
    CHANNELS 3 Zrotation Xrotation Yrotation
    JOINT rThigh
    {
      OFFSET 0 -1.70687 -2.19456
      CHANNELS 3 Zrotation Xrotation Yrotation
      JOINT rShin
      {
        OFFSET 0 -36.8199 0.73152
        CHANNELS 3 Zrotation Xrotation Yrotation
        JOINT rFoot
        {
          OFFSET 0.73152 -45.1104 -5.12064
          CHANNELS 3 Zrotation Xrotation Yrotation
          End Site
          {
            OFFSET -1.1221 -3.69964 12.103
          }
        }
      }
    }
  }
  JOINT lButtock
  {
    OFFSET 8.77824 4.35084 1.2192
    CHANNELS 3 Zrotation Xrotation Yrotation
    JOINT lThigh
    {
      OFFSET 0 -1.70687 -2.19456
      CHANNELS 3 Zrotation Xrotation Yrotation
      JOINT lShin
      {
        OFFSET 0 -36.8199 0.73152
        CHANNELS 3 Zrotation Xrotation Yrotation
        JOINT lFoot
        {
          OFFSET -0.73152 -45.1104 -5.12064
          CHANNELS 3 Zrotation Xrotation Yrotation
          End Site
          {
            OFFSET 1.1221 -3.69964 12.103
          }
        }
      }
    }
  }
}
MOTION
Frames:	6
Frame Time:	0.03333
-28.2456 66.8255 -103.836 -4.391600000000001 -45.46039999999999 6.2636 2.3753 21.9838 8.24757 0.0133734 -13.0531 2.28203 3.4885399999999995 10.822100000000002 9.55905 -8.54601 -32.5703 16.5793 -0.0 0.0 0.0 -0.0 0.0 0.0 7.886169999999999e-14 1.29054e-16 -9.408959999999999e-14 74.0989 47.7771 -7.355209999999999 -28.4389 -32.7817 70.2651 -14.3054 -68.5221 -20.895 -2.4901e-10 5.63648e-09 -2.6053699999999993e-10 -4.14772e-10 9.119430000000002e-09 -4.63424e-10 -2.49004e-10 5.63649e-09 -2.6054599999999996e-10 7.730909999999999 5.47488 0.417314 -2.49013e-10 5.63648e-09 -2.6053699999999993e-10 2.90554 0.965183 0.102902 -2.4900500000000006e-10 5.63649e-09 -2.60534e-10 10.278600000000003 0.731801 0.0259123 -2.49019e-10 5.63648e-09 -2.60527e-10 2.22167 -0.733487 -0.20892000000000002 7.87759e-14 1.3129e-16 -9.43062e-14 -23.791700000000002 4.918849999999999 -41.4254 12.2381 -5.1274 -24.8119 1.13954 49.9931 -5.82987 -1.8396200000000002e-10 3.60161e-09 -7.40812e-10 -2.05529e-10 5.76395e-09 -1.22669e-09 -1.83964e-10 3.60161e-09 -7.40801e-10 -7.730909999999999 5.47488 -0.417314 -1.83961e-10 3.60161e-09 -7.40813e-10 -2.90554 0.965183 -0.102902 -1.8397e-10 3.60161e-09 -7.40815e-10 -10.278600000000003 0.731801 -0.0259123 -1.83963e-10 3.60161e-09 -7.408219999999999e-10 -2.22167 -0.733487 0.20892000000000002 -2.03217e-16 0.0 -3.88251e-19 -12.555099999999998 -35.691199999999995 2.30587 -1.68816 69.3678 2.99622 -12.8572 -22.992500000000003 -22.2735 2.03217e-16 0.0 3.88251e-19 69.261 -52.40319999999999 59.55149999999998 1.75519 66.4563 -1.61012 -0.12026399999999997 12.252299999999998 4.53598
-28.2486 66.7848 -101.98099999999998 -4.1837 -47.0894 6.2472 1.3119899999999998 21.7135 7.309459999999999 0.201635 -12.521100000000002 1.9815200000000002 3.7523600000000004 10.4425 10.104100000000003 -8.59692 -31.333700000000004 17.673300000000005 -0.0 0.0 0.0 -0.0 0.0 0.0 2.3705699999999994e-13 -2.40593e-13 -1.44972e-12 74.7732 40.8231 -10.9157 -27.1326 -26.4729 60.0904 -10.039800000000001 -63.35210000000001 -16.2295 2.2300599999999996e-09 3.56798e-10 -1.15511e-09 3.88621e-09 4.28634e-10 -1.88315e-09 2.2300599999999996e-09 3.568e-10 -1.15511e-09 7.730909999999999 5.47488 0.417314 2.2300599999999996e-09 3.56797e-10 -1.15511e-09 2.90554 0.965183 0.102902 2.2300599999999996e-09 3.5679900000000004e-10 -1.1551e-09 10.278600000000003 0.731801 0.0259123 2.23005e-09 3.56797e-10 -1.1550899999999998e-09 2.22167 -0.733487 -0.20892000000000002 2.3689000000000006e-13 -2.40579e-13 -1.45e-12 -47.96260000000001 -27.8273 -40.5724 4.873640000000001 -1.55162 -9.236319999999997 160.339 56.0979 -170.923 -2.65162e-09 1.4306800000000001e-08 1.4673e-09 -4.089630000000001e-09 2.27211e-08 2.75143e-09 -2.65163e-09 1.4306800000000001e-08 1.46731e-09 -7.730909999999999 5.47488 -0.417314 -2.65162e-09 1.4306800000000001e-08 1.4673e-09 -2.90554 0.965183 -0.102902 -2.65163e-09 1.4306800000000001e-08 1.4673e-09 -10.278600000000003 0.731801 -0.0259123 -2.65162e-09 1.4306800000000001e-08 1.46729e-09 -2.22167 -0.733487 0.20892000000000002 -2.03217e-16 0.0 -3.88251e-19 -13.3798 -34.556900000000006 3.58571 -1.54176 68.0142 2.80125 -13.1131 -23.065700000000003 -22.567900000000005 2.03217e-16 0.0 3.88251e-19 65.8391 -49.63589999999999 54.1157 1.26992 60.72529999999999 -0.972566 -1.6605200000000002 16.483 11.457900000000002
-28.3628 66.8098 -99.8203 -4.6727 -47.7139 6.253000000000001 1.4498 21.5085 6.38828 -0.00603055 -12.1572 1.70207 3.9841099999999994 10.0263 10.109299999999998 -8.9136 -30.561299999999992 17.5876 -0.0 0.0 0.0 -0.0 0.0 0.0 1.75794e-13 -3.15984e-13 -1.34577e-12 74.6111 35.1896 -13.6223 -25.303900000000002 -21.8169 55.10929999999999 -8.68859 -60.9844 -14.691000000000004 2.21837e-09 -1.61481e-09 -1.0676599999999998e-09 3.86266e-09 -2.77265e-09 -1.7314299999999999e-09 2.21838e-09 -1.61481e-09 -1.06768e-09 7.730909999999999 5.47488 0.417314 2.21837e-09 -1.61481e-09 -1.0676599999999998e-09 2.90554 0.965183 0.102902 2.21838e-09 -1.61481e-09 -1.0676599999999998e-09 10.278600000000003 0.731801 0.0259123 2.21837e-09 -1.61481e-09 -1.06765e-09 2.22167 -0.733487 -0.20892000000000002 1.7560600000000003e-13 -3.15966e-13 -1.34606e-12 -47.27470000000001 -31.805300000000006 -36.27219999999999 2.83346 -0.56806 -5.33724 160.235 55.31679999999999 -170.91900000000004 -3.779169999999999e-09 1.5124e-08 1.7179100000000001e-09 -6.03141e-09 2.42005e-08 3.20645e-09 -3.77918e-09 1.5124e-08 1.7179100000000001e-09 -7.730909999999999 5.47488 -0.417314 -3.779169999999999e-09 1.5124e-08 1.7179100000000001e-09 -2.90554 0.965183 -0.102902 -3.77918e-09 1.5124e-08 1.7179100000000001e-09 -10.278600000000003 0.731801 -0.0259123 -3.779169999999999e-09 1.5124e-08 1.7179e-09 -2.22167 -0.733487 0.20892000000000002 -2.03217e-16 0.0 -3.88251e-19 -13.9347 -32.309 4.24462 -1.3486499999999997 66.0447 2.57855 -13.579599999999997 -22.5952 -23.5693 2.03217e-16 0.0 3.88251e-19 63.07619999999999 -47.6977 49.7877 1.01323 56.0967 -0.630244 -2.69013 20.049399999999995 12.6707
-28.468699999999995 66.8036 -97.4428 -5.9481 -46.775299999999994 6.9585 2.79253 21.3695 5.482540000000001 -0.612553 -11.9616 1.44291 4.17186 9.571539999999999 9.57705 -9.443330000000001 -30.2403 16.344 -0.0 0.0 0.0 -0.0 0.0 0.0 -1.0492699999999999e-13 -2.2604399999999995e-13 2.1777299999999998e-13 74.1259 30.8972 -15.8001 -24.8707 -20.8233 53.1769 -8.97465 -61.5213 -15.019400000000003 -2.8406e-10 -2.78338e-10 1.7900699999999999e-12 -4.85416e-10 -4.84429e-10 -8.25751e-12 -2.84054e-10 -2.78343e-10 1.7720800000000003e-12 7.730909999999999 5.47488 0.417314 -2.8406100000000006e-10 -2.78339e-10 1.7905699999999997e-12 2.90554 0.965183 0.102902 -2.8405e-10 -2.78339e-10 1.7888999999999998e-12 10.278600000000003 0.731801 0.0259123 -2.8406500000000004e-10 -2.78338e-10 1.79441e-12 2.22167 -0.733487 -0.20892000000000002 -1.0507800000000001e-13 -2.2603099999999997e-13 2.1751199999999997e-13 -28.7723 -1.58304 -26.464000000000002 7.290540000000001 -2.57333 -13.0316 1.42071 52.2842 -6.64247 -3.5666099999999995e-09 6.05321e-09 1.10023e-11 -6.03085e-09 1.0202200000000002e-08 1.3837200000000003e-10 -3.5666099999999995e-09 6.05321e-09 1.10137e-11 -7.730909999999999 5.47488 -0.417314 -3.5666099999999995e-09 6.05321e-09 1.10047e-11 -2.90554 0.965183 -0.102902 -3.5666099999999995e-09 6.0532e-09 1.10068e-11 -10.278600000000003 0.731801 -0.0259123 -3.5666099999999995e-09 6.0532e-09 1.10015e-11 -2.22167 -0.733487 0.20892000000000002 -2.03217e-16 0.0 -3.88251e-19 -14.1811 -28.956700000000005 4.31513 -1.13122 63.4591 2.35092 -14.2132 -21.5809 -25.2643 2.03217e-16 0.0 3.88251e-19 60.5079 -46.7198 46.0418 0.8389359999999999 52.5722 -0.445928 -1.9876200000000004 23.2236 7.7984
-28.625 66.644 -94.822 -7.0645 -44.5395 7.666299999999999 4.187310000000001 20.4002 5.506500000000001 -0.65323 -11.5311 1.48938 3.662970000000001 9.450070000000002 9.043200000000002 -8.72494 -29.5686 15.517800000000003 -0.0 0.0 0.0 -0.0 0.0 0.0 -1.89093e-13 -1.20075e-13 8.56973e-13 75.1827 30.274499999999993 -20.2172 -25.779 -22.889900000000004 55.2324 -9.01481 -61.59960000000001 -15.0659 -1.32177e-09 5.477490000000001e-10 5.09125e-10 -2.29225e-09 9.354e-10 8.16342e-10 -1.32177e-09 5.47748e-10 5.091079999999999e-10 7.730909999999999 5.47488 0.417314 -1.32177e-09 5.477490000000001e-10 5.09124e-10 2.90554 0.965183 0.102902 -1.32176e-09 5.477520000000001e-10 5.09124e-10 10.278600000000003 0.731801 0.0259123 -1.32178e-09 5.47754e-10 5.09131e-10 2.22167 -0.733487 -0.20892000000000002 -1.89226e-13 -1.2007100000000003e-13 8.567320000000001e-13 -23.4299 18.9617 -26.408 11.8153 -5.40654 -21.0688 1.5321199999999997 24.1374 -4.52872 -2.41081e-09 4.735680000000001e-10 -7.837779999999999e-10 -4.20913e-09 1.25182e-09 -1.31346e-09 -2.41081e-09 4.73577e-10 -7.837670000000002e-10 -7.730909999999999 5.47488 -0.417314 -2.4108e-09 4.735620000000001e-10 -7.83776e-10 -2.90554 0.965183 -0.102902 -2.41081e-09 4.73559e-10 -7.83776e-10 -10.278600000000003 0.731801 -0.0259123 -2.41081e-09 4.735650000000001e-10 -7.83781e-10 -2.22167 -0.733487 0.20892000000000002 -2.03217e-16 0.0 -3.88251e-19 -14.276300000000003 -24.4208 3.79657 -0.926108 60.43930000000002 2.15205 -14.724899999999998 -19.631400000000003 -27.6185 2.03217e-16 0.0 3.88251e-19 58.42010000000001 -46.9162 44.4716 0.787251 51.3405 -0.38300600000000007 -1.15722 21.8098 5.315480000000001
-28.9166 66.4666 -91.9688 -7.685600000000001 -40.5697 7.6285 5.6849799999999995 18.6046 6.44673 -0.135656 -10.8656 1.8401199999999998 2.4669 9.66339 8.50582 -6.760129999999999 -28.5557 15.1125 -0.0 0.0 0.0 -0.0 0.0 0.0 -7.67035e-14 1.92398e-15 5.71832e-13 78.7066 32.8343 -27.2864 -27.2061 -27.026600000000002 61.961600000000004 -8.80436 -61.21970000000001 -14.8259 -8.947599999999999e-10 8.63452e-10 4.5434199999999997e-10 -1.55784e-09 1.48683e-09 7.42372e-10 -8.94756e-10 8.63461e-10 4.54333e-10 7.730909999999999 5.47488 0.417314 -8.94761e-10 8.634529999999999e-10 4.54336e-10 2.90554 0.965183 0.102902 -8.947539999999999e-10 8.634630000000001e-10 4.54343e-10 10.278600000000003 0.731801 0.0259123 -8.947649999999999e-10 8.634639999999999e-10 4.5435600000000004e-10 2.22167 -0.733487 -0.20892000000000002 -7.683900000000001e-14 1.91408e-15 5.71595e-13 -25.6534 27.451 -28.960300000000004 15.984999999999998 -8.737049999999998 -29.571000000000005 2.70512 39.3384 -6.9575000000000005 -3.1177100000000006e-10 -1.6149e-09 -6.66431e-10 -5.66245e-10 -2.6506e-09 -1.1490499999999999e-09 -3.11776e-10 -1.6149e-09 -6.66429e-10 -7.730909999999999 5.47488 -0.417314 -3.1176e-10 -1.61493e-09 -6.66436e-10 -2.90554 0.965183 -0.102902 -3.1177e-10 -1.61493e-09 -6.66441e-10 -10.278600000000003 0.731801 -0.0259123 -3.11762e-10 -1.6149e-09 -6.664440000000001e-10 -2.22167 -0.733487 0.20892000000000002 -2.03217e-16 0.0 -3.88251e-19 -14.0391 -18.6873 2.7779899999999995 -0.73369 56.9854 1.9833499999999997 -14.942100000000002 -16.8015 -30.620599999999996 2.03217e-16 0.0 3.88251e-19 56.6858 -48.4399 45.013999999999996 0.83301 52.4017 -0.420033 -0.610123 15.8751 5.41109
